<?xml version="1.0" ?><svg viewBox="0 0 22.575 22.576" xmlns="http://www.w3.org/2000/svg"><g data-name="Layer 2" id="Layer_2"><g data-name="Layer 1" id="Layer_1-2"><path d="M2.964,2.394V3.763a.342.342,0,0,1-.684,0V2.394A.342.342,0,0,1,2.964,2.394ZM4.75,4.1a.342.342,0,0,0,.343-.341V2.394a.343.343,0,0,0-.685,0V3.763A.342.342,0,0,0,4.75,4.1Zm2.129,0a.342.342,0,0,0,.342-.341V2.394a.342.342,0,1,0-.684,0V3.763A.342.342,0,0,0,6.879,4.1Zm2.129,0a.341.341,0,0,0,.341-.341V2.394a.342.342,0,1,0-.684,0V3.763A.342.342,0,0,0,9.008,4.1ZM19.5,3.42c.644-.063.254-.988-.246-.584A.344.344,0,0,0,19.5,3.42Zm-2.281,0a.342.342,0,0,0,0-.684A.342.342,0,0,0,17.218,3.42Zm-2.284,0a.344.344,0,0,0,.241-.584A.339.339,0,1,0,14.934,3.42ZM2.623,7.525a.342.342,0,0,0-.343.342V9.235a.342.342,0,1,0,.684,0V7.867A.342.342,0,0,0,2.623,7.525Zm2.127,0a.342.342,0,0,0-.342.342V9.235a.343.343,0,0,0,.685,0V7.867A.343.343,0,0,0,4.75,7.525Zm2.129,0a.342.342,0,0,0-.342.342V9.235a.342.342,0,0,0,.684,0V7.867A.342.342,0,0,0,6.879,7.525Zm2.129,0a.343.343,0,0,0-.343.342V9.235a.342.342,0,1,0,.684,0V7.867A.342.342,0,0,0,9.008,7.525Zm10.245.784c-.318.31.173.8.488.483S19.567,8,19.253,8.309Zm-2.035-.1a.342.342,0,0,0,0,.684A.342.342,0,0,0,17.218,8.208Zm-2.526.1c-.319.307.176.8.483.483S15,8,14.692,8.309ZM20.9,11.288A3.085,3.085,0,0,1,19.5,17.1h-7.81v2.052h4.162c.526,0,.295.81.342,1.368h6.043a.342.342,0,0,1,0,.684H16.19c-.047.557.185,1.363-.342,1.369H6.727c-.528-.007-.295-.812-.343-1.369H.342a.342.342,0,0,1,0-.684H6.384c.047-.557-.184-1.363.343-1.368H11V17.1H3.078a3.086,3.086,0,0,1-1.4-5.815,3.1,3.1,0,0,1,0-5.473A3.086,3.086,0,0,1,3.078,0H19.5A3.086,3.086,0,0,1,20.9,5.815,3.1,3.1,0,0,1,20.9,11.288ZM3.078,5.473H19.5a2.4,2.4,0,0,0,0-4.789H3.078A2.4,2.4,0,0,0,3.078,5.473ZM7.069,19.839v2.052h8.437V19.839ZM19.5,11.63H3.078a2.394,2.394,0,0,0,0,4.788H19.5A2.394,2.394,0,0,0,19.5,11.63Zm2.395-3.079a2.4,2.4,0,0,0-2.395-2.4H3.078a2.4,2.4,0,0,0,0,4.79H19.5A2.4,2.4,0,0,0,21.891,8.551ZM2.623,13a.342.342,0,0,0-.343.342v1.368a.342.342,0,1,0,.684,0V13.34A.342.342,0,0,0,2.623,13ZM4.75,13a.342.342,0,0,0-.342.342v1.368a.343.343,0,0,0,.685,0V13.34A.343.343,0,0,0,4.75,13Zm2.129,0a.342.342,0,0,0-.342.342v1.368a.342.342,0,1,0,.684,0V13.34A.342.342,0,0,0,6.879,13Zm2.129,0a.343.343,0,0,0-.343.342v1.368a.342.342,0,1,0,.684,0V13.34A.342.342,0,0,0,9.008,13Zm10.245.784c-.317.311.172.8.488.483S19.562,13.472,19.253,13.782Zm-2.035-.1a.342.342,0,0,0,0,.684A.342.342,0,0,0,17.218,13.681Zm-2.526.1c-.319.307.176.8.483.483S15,13.471,14.692,13.782Z" id="hosting"/></g></g></svg>